<svg xmlns="http://www.w3.org/2000/svg" xml:space="preserve" x="0px" y="0px" style="enable-background:new 0 0 1197.5 593.6" viewBox="0 0 1197.5 593.6"><path d="M252.86 140.247c-1.102-.062-2.047-.156-2.099-.21-.577-.602-.848-15.403-.367-20.09 1.568-15.286 5.681-29.236 12.829-43.507 7.501-14.978 18.179-29.326 29.948-40.244 14.48-13.433 34.27-24.702 54.704-31.151 7.751-2.447 17.483-4.363 24.237-4.773l2.14-.13.24 2.539c.613 6.497.47 15.16-.37 22.511-2.261 19.786-9.412 38.424-21.618 56.348-9.986 14.666-23.612 28.811-37.372 38.798-19.643 14.256-41.042 21.097-62.273 19.91z" style="opacity:1;vector-effect:none;fill:#fff;fill-opacity:1;stroke:none;stroke-width:.196957;stroke-linecap:butt;stroke-linejoin:miter;stroke-miterlimit:4;stroke-dasharray:none;stroke-dashoffset:0;stroke-opacity:1;stop-color:#000;stop-opacity:1"/><path d="M148.506 592.04c-25.105-5.129-48.918-26.063-81.54-71.682C25.687 462.636.358 386.358.4 319.898c.027-42.891 10.25-79.143 31.113-110.336 11.526-17.232 23.725-29.652 40.178-40.904 25.121-17.18 50.902-25.477 79.571-25.606 19.102-.087 27.748 1.886 62.44 14.25 11.376 4.055 24.28 8.299 28.673 9.43 13.1 3.375 15.856 2.845 53.06-10.206 42.5-14.91 61.323-17.74 89.812-13.503 40.23 5.984 72.608 23.857 94.31 52.06l3.692 4.798-6.734 4.574c-31.005 21.061-49.687 47.485-56.526 79.951-2.346 11.133-3.24 27.097-2.191 39.128 2.632 30.21 12.275 53.587 30.923 74.968 11.455 13.133 28.899 26.592 43.348 33.443 6.518 3.09 6.992 3.472 6.564 5.3-1.188 5.078-12.066 31.089-17.567 42.005-20.18 40.048-54.579 84.608-76.609 99.24-26.357 17.506-48.05 18.208-87.875 2.843-24.577-9.482-33.523-11.339-54.63-11.339-14.003 0-17.25.244-24.423 1.831-11.413 2.526-17.517 4.412-30.331 9.373-27.406 10.608-44.44 13.755-58.693 10.843zM701.397 592.383c-12.332-.836-27.152-3.407-36.61-6.353-37.218-11.594-55.112-36.99-59.316-84.183-.51-5.735-.808-56.836-.81-139.249l-.003-130.188h-59.875v-66.178h59.875V69.329h84.298V166.232h77.995v66.178h-78.027l.22 128.219c.205 120.277.306 128.512 1.622 132.946 4.61 15.538 12.256 23.843 26.36 28.635 5.916 2.01 6.672 2.073 25.009 2.082 10.399.005 20.06-.249 21.468-.563l2.56-.571v66.013l-2.166.442c-14.798 3.023-41.448 4.202-62.6 2.77zM959.263 588.318c-1.77-4.681-146.617-420.457-146.617-420.855 0-.251 19.94-.365 44.313-.253l44.314.204 49.754 165.05c27.364 90.777 50.507 167.62 51.427 170.762 2.044 6.976 3.453 7.405 5.176 1.575.672-2.274 23.828-79.117 51.457-170.762l50.235-166.625 43.585-.204 43.585-.204-.459 1.78c-.252.978-33.19 96.082-73.194 211.341l-72.735 209.563-45.084.203-45.085.204z" style="opacity:1;vector-effect:none;fill:#fff;fill-opacity:1;stroke:none;stroke-width:.787829;stroke-linecap:butt;stroke-linejoin:miter;stroke-miterlimit:4;stroke-dasharray:none;stroke-dashoffset:0;stroke-opacity:1;stop-color:#000;stop-opacity:1"/></svg>