<svg xmlns="http://www.w3.org/2000/svg" viewBox="0 0 196 57.5"><g fill="#FF0558" fill-rule="evenodd" clip-rule="evenodd"><path d="M78.271 12.918v7.853h7.824v35.425h9.748V20.77h7.375v-7.853H78.271Zm75.193 16.72h-7.46V12.977h-9.719v43.277h9.719V37.491h7.46v18.762h9.719V12.976h-9.719V29.64Zm-33.851-17.185h-1.693c-8.778 0-12.289 4.479-12.289 11.75v20.65c0 7.27 3.511 11.924 12.477 11.924h1.693c8.903 0 12.038-5.352 12.038-11.4v-7.388h-9.53v6.863c0 2.56-.878 4.13-3.386 4.13-2.446 0-3.26-1.453-3.26-4.187v-20.65c0-2.735.814-4.13 3.26-4.13 2.57 0 3.386 1.512 3.386 4.13v5.002h9.53v-5.526c0-7.212-3.386-11.168-12.226-11.168Zm-50.831 28.97-2.826-18.091h-1.672l-2.826 18.09h7.324Zm3.544-28.505 7.65 43.278H71.09l-1.081-6.92h-9.778l-1.082 6.92h-8.885l7.65-43.278h14.412Zm112.065 28.504-2.827-18.09h-1.671l-2.827 18.09h7.325Zm3.544-28.504 7.65 43.278h-8.886l-1.081-6.92h-9.778l-1.081 6.92h-8.886l7.649-43.278h14.413ZM42.25.758l-2.898 41.449-.779.04-6.892-29.325h-8.517l-5.156 30.385-1.105.057-4.617-30.442H.414L11.215 58.24l12.074-.784 3.928-28.13 1.152-.06 5.26 27.51 11.556-.755L54.362.758H42.25Z"/></g></svg>